<svg width="42" height="42" viewBox="0 0 42 42" fill="none" xmlns="http://www.w3.org/2000/svg">
<path d="M9.5 39.1865C7.5 40.3412 5 38.8978 5 36.5884L5 5.41153C5 3.10213 7.5 1.65875 9.5 2.81345L36.5 18.4019C38.5 19.5566 38.5 22.4434 36.5 23.5981L9.5 39.1865Z" fill="url(#paint0_linear_1_5)"/>
<path d="M9.49998 39.1865C7.49998 40.3412 4.99998 38.8978 4.99998 36.5884L4.99999 15.8038C4.99999 13.4944 7.49999 12.051 9.49999 13.2057L27.5 23.5981C29.5 24.7528 29.5 27.6395 27.5 28.7942L9.49998 39.1865Z" fill="url(#paint1_linear_1_5)"/>
<path d="M9.49998 39.1865C7.49999 40.3412 4.99998 38.8978 4.99998 36.5884L4.99999 26.1961C4.99999 23.8867 7.49999 22.4434 9.49998 23.5981L18.5 28.7942C20.5 29.9489 20.5 32.8357 18.5 33.9904L9.49998 39.1865Z" fill="url(#paint2_linear_1_5)"/>
<defs>
<linearGradient id="paint0_linear_1_5" x1="3" y1="-3.5" x2="22.5" y2="32" gradientUnits="userSpaceOnUse">
<stop stop-color="#7A7A7A"/>
<stop offset="1" stop-color="#222222"/>
</linearGradient>
<linearGradient id="paint1_linear_1_5" x1="25" y1="39" x2="-0.499999" y2="6.5" gradientUnits="userSpaceOnUse">
<stop stop-color="#FF534A"/>
<stop offset="1" stop-color="#FF8882"/>
</linearGradient>
<linearGradient id="paint2_linear_1_5" x1="3.99999" y1="21.5" x2="17.5" y2="41" gradientUnits="userSpaceOnUse">
<stop stop-color="#6F6F6F"/>
<stop offset="1" stop-color="#2A2A2A"/>
</linearGradient>
</defs>
</svg>
